<?xml version="1.0" encoding="utf-8"?>
<!-- Generator: Adobe Illustrator 17.0.0, SVG Export Plug-In . SVG Version: 6.00 Build 0)  -->
<!DOCTYPE svg PUBLIC "-//W3C//DTD SVG 1.1//EN" "http://www.w3.org/Graphics/SVG/1.1/DTD/svg11.dtd">
<svg version="1.1" id="dion-logo_xA0_Image_1_" xmlns="http://www.w3.org/2000/svg" xmlns:xlink="http://www.w3.org/1999/xlink"
	 x="0px" y="0px" width="240px" height="94px" viewBox="0 0 240 94" enable-background="new 0 0 240 94" xml:space="preserve">
<g>
	<path fill="#77BF43" d="M119.915,93.916c-38.833,0-77.667-0.043-116.5,0.084c-2.983,0.01-3.6-0.6-3.585-3.584
		c0.142-28.999,0.142-58,0-86.999C-0.185,0.432,0.432-0.17,3.415-0.166c77.667,0.104,155.333,0.104,233,0
		c2.982-0.004,3.6,0.598,3.585,3.582c-0.142,28.999-0.142,58,0,86.999c0.015,2.984-0.602,3.594-3.585,3.584
		C197.582,93.873,158.748,93.916,119.915,93.916z"/>
	<path fill="#FEFEFE" d="M120.81,41.648c-0.001,9.822-0.124,19.646,0.071,29.464c0.062,3.114-0.916,4.45-3.998,4.949
		c-7.408,1.199-14.778,2.597-22.28,0.865c-8.164-1.884-13.533-6.803-15.89-14.881c-1.527-5.23-1.461-10.592-0.408-15.832
		c2.57-12.789,12.395-19.232,25.131-16.199c4.031,0.96,4.472-0.241,4.259-3.614c-0.22-3.482,0.239-7.019-0.123-10.477
		c-0.463-4.422,1.156-6.014,5.597-6.521c7.675-0.875,7.639-1.206,7.641,6.275C120.812,24.335,120.811,32.991,120.81,41.648z"/>
	<path fill="#FDFEFD" d="M195.36,53.732c0.003-6.159,0.036-12.317-0.017-18.475c-0.017-1.981,0.171-3.655,2.567-4.097
		c7.7-1.422,15.397-2.881,23.267-1.42c7.927,1.472,12.496,5.861,13.705,13.761c1.543,10.087,0.414,20.274,0.716,30.412
		c0.067,2.245-1.193,2.832-3.157,2.78c-2.162-0.057-4.337-0.142-6.488,0.026c-2.878,0.224-3.751-1.044-3.728-3.79
		c0.066-7.987,0.13-15.984-0.184-23.962c-0.268-6.812-2.875-8.68-9.549-8.412c-3.186,0.128-3.822,1.424-3.778,4.272
		c0.142,9.152-0.101,18.312,0.129,27.461c0.089,3.567-1.121,4.573-4.558,4.465c-10.638-0.334-8.739,1.3-8.915-9.039
		C195.291,63.054,195.357,58.393,195.36,53.732z"/>
	<path fill="#FDFEFD" d="M190.331,53.109c-0.129,13.242-10.281,23.756-22.75,23.562c-12.485-0.194-22.227-10.917-22.022-24.239
		c0.201-13.038,10.142-23.365,22.45-23.322C180.445,29.154,190.46,39.92,190.331,53.109z"/>
	<path fill="#FDFEFD" d="M52.964,71.301c4.392-4.968,4.436-11.012,2.419-16.497c-2.759-7.503-0.682-14.38,0.637-22.132
		c5.858,3.326,9.012,8.261,10.555,14.041c3.384,12.678,0.728,24.199-8.282,33.814c-6.76,7.214-15.246,9.065-24.741,6.343
		c-3.188-0.914-5.815-2.91-5.419-6.21c0.434-3.621,3.808-3.529,6.756-3.219c3.021,0.317,5.983-0.102,8.926-0.744
		C46.382,74.08,48.176,70.152,52.964,71.301z"/>
	<path fill="#FDFEFD" d="M21.423,83.034C6.6,81.873-2.301,64.964,5.31,52.577c4.857-7.904,11.302-14.324,19.005-19.481
		c1.241-0.831,2.735-2.093,4.064-1.315c1.588,0.93,0.344,2.7,0.104,4.076c-1.046,6.007-2.866,11.52-8.576,14.955
		c-1.482,0.891-2.619,2.571-3.562,4.105c-3.69,5.999-3.255,8.259,2.163,12.691c2.694,2.203,5.644,4.131,7.561,7.158
		c1.173,1.852,1.336,3.711,0.111,5.605C25.025,82.152,23.595,83.422,21.423,83.034z"/>
	<path fill="#FDFEFD" d="M140.786,53.531c0.002,6.49-0.109,12.983,0.053,19.469c0.071,2.832-0.918,3.784-3.728,3.733
		c-11.706-0.209-9.361,1.118-9.492-8.915c-0.143-10.981,0.114-21.969-0.114-32.948c-0.078-3.749,1.065-4.862,4.803-4.792
		c8.473,0.16,8.476-0.033,8.476,8.475C140.784,43.546,140.785,48.538,140.786,53.531z"/>
	<path fill="#FDFDFC" d="M32.928,32.11c-1.695-1.028-3.566-1.854-5.038-3.137c-1.699-1.48-3.124-3.272,0.25-4.798
		c1.69-0.765,1.926-2.599,2.124-4.266c0.294-2.472,0.431-4.966,0.808-7.423c1.139-7.413,6.806-12.301,13.183-11.467
		c6.407,0.837,10.935,6.902,10.435,14.175c-0.182,2.643-0.679,5.266-1.056,7.894c-0.216,1.505-0.552,3.344,0.496,4.326
		c4.329,4.054,1.111,5.328-2.221,6.681C45.315,35.997,38.832,36.828,32.928,32.11z"/>
	<path fill="#FDFDFC" d="M41.659,75.732c-4.543-0.05-8.975-0.612-12.699-3.503c-1.192-0.925-3.19-1.565-2.542-3.724
		c0.364-1.212-0.022-1.497-1.083-1.279c-4.987,1.025-8.321-0.927-8.969-5.928c-0.486-3.754,1.824-6.461,5.564-7.069
		c4.906-0.798,7.228,2.252,8.342,7.364c0.523-0.867,0.754-1.261,0.995-1.649c1.358-2.187,2.365-5.451,5.814-3.759
		c3.383,1.659,1.282,4.253,0.19,6.348c-1.236,2.372-0.194,3.305,1.96,3.843c3.572,0.892,7.19,1.289,10.846,0.802
		c2.14-0.285,3.21,0.291,2.753,2.613C50.455,74.309,46.479,75.815,41.659,75.732z"/>
	<path fill="#FCFDFB" d="M133.986,9.143c4.465-0.035,7.949,3.355,7.976,7.761c0.027,4.45-3.353,7.852-7.842,7.894
		c-4.462,0.042-8.013-3.387-8.034-7.756C126.066,12.679,129.568,9.178,133.986,9.143z"/>
	<path fill="#FCFDFB" d="M49.91,35.926c-0.027,0.331,0.014,0.686-0.091,0.99c-1.172,3.389,0.06,8.828-3.008,9.949
		c-3.685,1.347-8.45-0.297-12.752-0.586c-2.209-0.149-2.213-1.505-1.906-3.134c0.585-3.101,1.151-6.205,1.725-9.308
		C39.194,34.749,44.679,34.363,49.91,35.926z"/>
	<path fill="#83C554" d="M49.91,35.926c-5.547,0.86-10.861-0.063-16.031-2.09c-0.317-0.575-0.633-1.151-0.95-1.726
		c6.207,1.81,12.569,2.148,18.982,1.984C51.244,34.705,50.577,35.316,49.91,35.926z"/>
	<path fill="#96CE6D" d="M41.659,75.732c4.106-1.261,8.335-2.291,11.171-5.941c0.045,0.503,0.089,1.006,0.134,1.509
		c-2.171,3.289-5.426,4.74-9.149,5.396C43.096,76.375,42.377,76.054,41.659,75.732z"/>
	<path fill="#77C044" d="M107.65,54.253c-0.001,1.658,0.195,3.345-0.049,4.966c-0.343,2.279,1.499,5.589-1.405,6.645
		c-3.607,1.312-7.6,1.03-10.861-1.598c-5.042-4.064-5.885-16.248-1.467-21.074c3.155-3.446,7.142-2.948,11.106-1.97
		c3.802,0.938,2.489,4.119,2.648,6.568C107.761,49.936,107.651,52.098,107.65,54.253z"/>
	<path fill="#77C044" d="M155.166,46.733c0.054-2.117,1.214-4.031,3.487-5.181c2.47-1.25,4.998-1.102,6.936,0.845
		c1.599,1.606,2.461,2.694,4.45,0.263c2.034-2.486,5.001-2.508,7.69-0.77c2.928,1.892,3.522,4.621,2.392,7.863
		c-2.067,5.929-6.783,9.76-10.975,14.011c-0.484,0.491-1.023,0.715-1.772,0.513C164.024,63.375,155.2,51.054,155.166,46.733z"/>
	<path fill="#78C045" d="M42.635,12.89c1.585,3.176,3.406,5.059,5.655,6.849c3.43,2.73,0.677,6.063-0.948,8.611
		c-2.117,3.32-6.605,3.781-9.695,1.565c-3.189-2.286-5.224-8.948-2.887-11.128C37.004,16.695,41.043,17.044,42.635,12.89z"/>
</g>
<g>
	<path fill="#FFFFFF" d="M78.843,89.25l1.979-9.449h1.94l-1.644,7.87h4.808l-0.329,1.579H78.843z"/>
	<path fill="#FFFFFF" d="M87.112,86.407c0-1.268,0.357-2.278,1.073-3.032c0.715-0.754,1.655-1.131,2.82-1.131
		c1.009,0,1.798,0.278,2.365,0.834c0.567,0.557,0.851,1.306,0.851,2.247c0,1.108-0.354,2.066-1.063,2.874s-1.659,1.212-2.849,1.212
		c-0.645,0-1.216-0.129-1.714-0.387s-0.87-0.623-1.115-1.096C87.235,87.456,87.112,86.949,87.112,86.407z M92.384,85.086
		c0-0.438-0.128-0.789-0.383-1.054c-0.256-0.264-0.585-0.396-0.989-0.396c-0.4,0-0.754,0.124-1.063,0.371
		c-0.31,0.247-0.55,0.605-0.722,1.076s-0.258,0.903-0.258,1.299c0,0.49,0.133,0.879,0.4,1.167c0.266,0.287,0.602,0.432,1.005,0.432
		c0.507,0,0.932-0.217,1.276-0.651C92.14,86.715,92.384,85.967,92.384,85.086z"/>
	<path fill="#FFFFFF" d="M98.327,89.25h-1.592l-1.373-6.845h1.817l0.483,2.984c0.133,0.808,0.213,1.345,0.238,1.611
		c0.035-0.073,0.184-0.352,0.448-0.835s0.426-0.774,0.486-0.873l1.702-2.888h1.998L98.327,89.25z"/>
	<path fill="#FFFFFF" d="M108.91,86.401h-4.641c-0.004,0.073-0.006,0.129-0.006,0.167c0,0.456,0.13,0.823,0.39,1.103
		c0.26,0.279,0.577,0.419,0.951,0.419c0.614,0,1.093-0.318,1.437-0.954l1.657,0.277c-0.322,0.666-0.753,1.166-1.292,1.499
		s-1.144,0.499-1.814,0.499c-0.919,0-1.667-0.291-2.243-0.873c-0.576-0.582-0.864-1.353-0.864-2.311c0-0.938,0.26-1.771,0.78-2.501
		c0.709-0.988,1.721-1.482,3.036-1.482c0.838,0,1.504,0.259,1.998,0.776s0.741,1.243,0.741,2.176
		C109.039,85.643,108.996,86.045,108.91,86.401z M107.351,85.273c0.004-0.082,0.006-0.145,0.006-0.188
		c0-0.507-0.114-0.887-0.342-1.141c-0.228-0.253-0.533-0.38-0.915-0.38s-0.725,0.144-1.028,0.432
		c-0.303,0.288-0.508,0.713-0.616,1.276H107.351z"/>
	<path fill="#FFFFFF" d="M115.865,84.345l-1.805-0.154c0.207-0.61,0.566-1.087,1.08-1.431c0.514-0.344,1.193-0.516,2.04-0.516
		c0.881,0,1.531,0.177,1.953,0.531s0.631,0.788,0.631,1.299c0,0.206-0.018,0.426-0.055,0.657c-0.035,0.232-0.164,0.843-0.383,1.831
		c-0.18,0.816-0.271,1.388-0.271,1.714c0,0.293,0.053,0.617,0.156,0.974h-1.799c-0.073-0.249-0.118-0.507-0.135-0.773
		c-0.271,0.301-0.582,0.531-0.935,0.693c-0.352,0.16-0.707,0.241-1.063,0.241c-0.567,0-1.036-0.186-1.405-0.558
		c-0.37-0.371-0.555-0.85-0.555-1.434c0-0.653,0.203-1.176,0.609-1.566c0.406-0.392,1.131-0.628,2.175-0.709
		c0.881-0.073,1.469-0.161,1.766-0.265c0.077-0.258,0.116-0.464,0.116-0.618c0-0.198-0.08-0.363-0.238-0.497
		c-0.159-0.133-0.396-0.199-0.709-0.199c-0.331,0-0.592,0.067-0.783,0.203C116.063,83.903,115.934,84.096,115.865,84.345z
		 M117.625,86.06c-0.112,0.03-0.26,0.058-0.445,0.084c-0.928,0.111-1.534,0.274-1.817,0.489c-0.202,0.155-0.303,0.363-0.303,0.626
		c0,0.215,0.078,0.396,0.232,0.544c0.154,0.148,0.358,0.223,0.612,0.223c0.279,0,0.542-0.067,0.79-0.203
		c0.247-0.135,0.432-0.31,0.554-0.521c0.123-0.213,0.231-0.545,0.325-0.996L117.625,86.06z"/>
	<path fill="#FFFFFF" d="M122.053,82.405h1.753l-0.181,0.89c0.438-0.379,0.848-0.648,1.228-0.81
		c0.381-0.161,0.781-0.241,1.202-0.241c0.563,0,1.007,0.161,1.331,0.483s0.487,0.75,0.487,1.282c0,0.241-0.071,0.696-0.213,1.366
		l-0.806,3.874h-1.85l0.812-3.887c0.12-0.58,0.181-0.926,0.181-1.037c0-0.236-0.07-0.423-0.209-0.558
		c-0.141-0.136-0.335-0.203-0.584-0.203c-0.271,0-0.571,0.113-0.902,0.342c-0.331,0.228-0.591,0.528-0.779,0.902
		c-0.138,0.266-0.293,0.81-0.465,1.63l-0.586,2.811h-1.85L122.053,82.405z"/>
	<path fill="#FFFFFF" d="M134.981,89.25h-1.753l0.154-0.741c-0.335,0.322-0.665,0.554-0.989,0.692c-0.324,0.14-0.69,0.21-1.099,0.21
		c-0.709,0-1.284-0.241-1.725-0.726c-0.44-0.482-0.66-1.197-0.66-2.143c0-1.096,0.309-2.086,0.928-2.972
		c0.619-0.885,1.438-1.327,2.456-1.327c0.919,0,1.608,0.365,2.068,1.096l0.741-3.539h1.85L134.981,89.25z M130.708,86.466
		c0,0.489,0.123,0.872,0.371,1.147c0.246,0.274,0.551,0.412,0.911,0.412c0.336,0,0.648-0.115,0.938-0.345s0.521-0.581,0.695-1.054
		c0.175-0.473,0.262-0.926,0.262-1.36c0-0.494-0.134-0.894-0.399-1.198c-0.267-0.306-0.574-0.458-0.922-0.458
		c-0.542,0-0.986,0.301-1.334,0.902C130.882,85.114,130.708,85.766,130.708,86.466z"/>
	<path fill="#FFFFFF" d="M145.029,86.672l1.799,0.29c-0.297,0.799-0.735,1.407-1.315,1.824s-1.252,0.625-2.018,0.625
		c-0.872,0-1.563-0.26-2.075-0.78c-0.511-0.52-0.767-1.235-0.767-2.146c0-0.744,0.154-1.446,0.464-2.108
		c0.31-0.661,0.775-1.183,1.398-1.562c0.623-0.381,1.307-0.57,2.05-0.57c0.808,0,1.452,0.21,1.934,0.632
		c0.481,0.421,0.752,0.975,0.812,1.662l-1.76,0.188c-0.043-0.383-0.16-0.664-0.352-0.845s-0.441-0.271-0.751-0.271
		c-0.356,0-0.689,0.133-0.999,0.399s-0.547,0.665-0.712,1.195c-0.166,0.531-0.248,1.028-0.248,1.492
		c0,0.404,0.099,0.716,0.296,0.935c0.198,0.22,0.445,0.329,0.741,0.329c0.297,0,0.583-0.107,0.857-0.322
		C144.66,87.424,144.875,87.102,145.029,86.672z"/>
	<path fill="#FFFFFF" d="M150.341,84.345l-1.805-0.154c0.206-0.61,0.566-1.087,1.08-1.431c0.513-0.344,1.193-0.516,2.04-0.516
		c0.881,0,1.531,0.177,1.952,0.531c0.422,0.354,0.632,0.788,0.632,1.299c0,0.206-0.019,0.426-0.055,0.657
		c-0.036,0.232-0.164,0.843-0.384,1.831c-0.18,0.816-0.271,1.388-0.271,1.714c0,0.293,0.052,0.617,0.155,0.974h-1.799
		c-0.073-0.249-0.118-0.507-0.135-0.773c-0.271,0.301-0.583,0.531-0.935,0.693c-0.353,0.16-0.707,0.241-1.063,0.241
		c-0.567,0-1.036-0.186-1.405-0.558c-0.37-0.371-0.555-0.85-0.555-1.434c0-0.653,0.203-1.176,0.609-1.566
		c0.406-0.392,1.131-0.628,2.175-0.709c0.881-0.073,1.47-0.161,1.767-0.265c0.077-0.258,0.116-0.464,0.116-0.618
		c0-0.198-0.08-0.363-0.239-0.497c-0.158-0.133-0.395-0.199-0.709-0.199c-0.33,0-0.592,0.067-0.782,0.203
		C150.54,83.903,150.41,84.096,150.341,84.345z M152.101,86.06c-0.111,0.03-0.26,0.058-0.444,0.084
		c-0.929,0.111-1.534,0.274-1.818,0.489c-0.201,0.155-0.303,0.363-0.303,0.626c0,0.215,0.077,0.396,0.232,0.544
		c0.154,0.148,0.358,0.223,0.612,0.223c0.279,0,0.542-0.067,0.789-0.203c0.247-0.135,0.432-0.31,0.555-0.521
		c0.122-0.213,0.23-0.545,0.325-0.996L152.101,86.06z"/>
	<path fill="#FFFFFF" d="M156.399,82.405h1.728l-0.277,1.327c0.645-0.992,1.343-1.488,2.095-1.488c0.267,0,0.552,0.066,0.857,0.199
		l-0.709,1.515c-0.168-0.06-0.347-0.09-0.535-0.09c-0.318,0-0.642,0.12-0.97,0.361c-0.329,0.24-0.586,0.562-0.771,0.963
		c-0.185,0.402-0.367,1.039-0.548,1.911l-0.451,2.146h-1.85L156.399,82.405z"/>
	<path fill="#FFFFFF" d="M166.873,86.401h-4.641c-0.005,0.073-0.007,0.129-0.007,0.167c0,0.456,0.13,0.823,0.39,1.103
		s0.577,0.419,0.951,0.419c0.614,0,1.094-0.318,1.438-0.954l1.656,0.277c-0.322,0.666-0.753,1.166-1.293,1.499
		c-0.539,0.333-1.144,0.499-1.813,0.499c-0.92,0-1.668-0.291-2.243-0.873c-0.576-0.582-0.864-1.353-0.864-2.311
		c0-0.938,0.261-1.771,0.78-2.501c0.709-0.988,1.721-1.482,3.036-1.482c0.838,0,1.504,0.259,1.998,0.776s0.741,1.243,0.741,2.176
		C167.002,85.643,166.959,86.045,166.873,86.401z M165.312,85.273c0.005-0.082,0.007-0.145,0.007-0.188
		c0-0.507-0.114-0.887-0.342-1.141c-0.228-0.253-0.532-0.38-0.915-0.38s-0.725,0.144-1.028,0.432
		c-0.303,0.288-0.508,0.713-0.615,1.276H165.312z"/>
	<path fill="#FFFFFF" d="M167.963,87.465h1.862l-0.31,1.476c-0.176,0.851-0.459,1.454-0.848,1.808
		c-0.389,0.355-0.893,0.539-1.511,0.552l0.18-0.857c0.31-0.068,0.549-0.192,0.719-0.37c0.17-0.179,0.296-0.453,0.377-0.822h-0.851
		L167.963,87.465z"/>
	<path fill="#FFFFFF" d="M177.494,84.345l-1.805-0.154c0.206-0.61,0.566-1.087,1.08-1.431c0.513-0.344,1.193-0.516,2.04-0.516
		c0.881,0,1.531,0.177,1.952,0.531c0.422,0.354,0.632,0.788,0.632,1.299c0,0.206-0.019,0.426-0.055,0.657
		c-0.036,0.232-0.164,0.843-0.384,1.831c-0.18,0.816-0.271,1.388-0.271,1.714c0,0.293,0.052,0.617,0.155,0.974h-1.799
		c-0.073-0.249-0.118-0.507-0.135-0.773c-0.271,0.301-0.583,0.531-0.935,0.693c-0.353,0.16-0.707,0.241-1.063,0.241
		c-0.567,0-1.036-0.186-1.405-0.558c-0.37-0.371-0.555-0.85-0.555-1.434c0-0.653,0.203-1.176,0.609-1.566
		c0.406-0.392,1.131-0.628,2.175-0.709c0.881-0.073,1.47-0.161,1.767-0.265c0.077-0.258,0.116-0.464,0.116-0.618
		c0-0.198-0.08-0.363-0.239-0.497c-0.158-0.133-0.395-0.199-0.709-0.199c-0.33,0-0.592,0.067-0.782,0.203
		C177.693,83.903,177.563,84.096,177.494,84.345z M179.254,86.06c-0.111,0.03-0.26,0.058-0.444,0.084
		c-0.929,0.111-1.534,0.274-1.818,0.489c-0.201,0.155-0.303,0.363-0.303,0.626c0,0.215,0.077,0.396,0.232,0.544
		c0.154,0.148,0.358,0.223,0.612,0.223c0.279,0,0.542-0.067,0.789-0.203c0.247-0.135,0.432-0.31,0.555-0.521
		c0.122-0.213,0.23-0.545,0.325-0.996L179.254,86.06z"/>
	<path fill="#FFFFFF" d="M183.683,82.405h1.753l-0.181,0.89c0.438-0.379,0.848-0.648,1.228-0.81
		c0.381-0.161,0.781-0.241,1.202-0.241c0.563,0,1.007,0.161,1.331,0.483s0.487,0.75,0.487,1.282c0,0.241-0.071,0.696-0.213,1.366
		l-0.806,3.874h-1.85l0.812-3.887c0.12-0.58,0.181-0.926,0.181-1.037c0-0.236-0.07-0.423-0.209-0.558
		c-0.141-0.136-0.335-0.203-0.584-0.203c-0.271,0-0.571,0.113-0.902,0.342c-0.331,0.228-0.591,0.528-0.779,0.902
		c-0.138,0.266-0.293,0.81-0.465,1.63l-0.586,2.811h-1.85L183.683,82.405z"/>
	<path fill="#FFFFFF" d="M190.862,82.405h1.843l0.464,3.409c0.116,0.877,0.181,1.491,0.193,1.844c0.241-0.7,0.572-1.439,0.993-2.218
		l1.637-3.035h1.96l-4.229,7.515c-0.348,0.623-0.622,1.06-0.821,1.309c-0.2,0.249-0.441,0.445-0.723,0.587s-0.619,0.213-1.015,0.213
		c-0.392,0-0.832-0.069-1.321-0.207l0.161-1.379c0.224,0.064,0.44,0.097,0.65,0.097c0.567,0,1.034-0.43,1.399-1.289L190.862,82.405z
		"/>
	<path fill="#FFFFFF" d="M204.784,89.25h-1.74l-0.335-4.357l-2.088,4.357h-1.715l-0.857-6.845h1.644l0.478,4.589l2.133-4.589h1.683
		l0.231,4.589l2.121-4.589h1.856L204.784,89.25z"/>
	<path fill="#FFFFFF" d="M209.773,89.25h-1.85l1.979-9.449h1.85l-0.709,3.365c0.417-0.327,0.806-0.562,1.167-0.706
		c0.36-0.144,0.747-0.216,1.16-0.216c0.554,0,0.992,0.159,1.314,0.477c0.322,0.318,0.483,0.735,0.483,1.251
		c0,0.274-0.061,0.7-0.181,1.275l-0.838,4.003h-1.85l0.857-4.08c0.09-0.442,0.135-0.726,0.135-0.851c0-0.228-0.07-0.41-0.212-0.548
		c-0.143-0.138-0.336-0.206-0.58-0.206c-0.31,0-0.606,0.107-0.89,0.322c-0.37,0.283-0.651,0.632-0.845,1.044
		c-0.107,0.228-0.249,0.763-0.425,1.604L209.773,89.25z"/>
	<path fill="#FFFFFF" d="M222.625,86.401h-4.641c-0.005,0.073-0.007,0.129-0.007,0.167c0,0.456,0.13,0.823,0.39,1.103
		s0.577,0.419,0.951,0.419c0.614,0,1.094-0.318,1.438-0.954l1.656,0.277c-0.322,0.666-0.753,1.166-1.293,1.499
		c-0.539,0.333-1.144,0.499-1.813,0.499c-0.92,0-1.668-0.291-2.243-0.873c-0.576-0.582-0.864-1.353-0.864-2.311
		c0-0.938,0.261-1.771,0.78-2.501c0.709-0.988,1.721-1.482,3.036-1.482c0.838,0,1.504,0.259,1.998,0.776s0.741,1.243,0.741,2.176
		C222.754,85.643,222.711,86.045,222.625,86.401z M221.064,85.273c0.005-0.082,0.007-0.145,0.007-0.188
		c0-0.507-0.114-0.887-0.342-1.141c-0.228-0.253-0.532-0.38-0.915-0.38s-0.725,0.144-1.028,0.432
		c-0.303,0.288-0.508,0.713-0.615,1.276H221.064z"/>
	<path fill="#FFFFFF" d="M224.63,82.405h1.728l-0.277,1.327c0.645-0.992,1.343-1.488,2.095-1.488c0.267,0,0.552,0.066,0.857,0.199
		l-0.709,1.515c-0.168-0.06-0.347-0.09-0.535-0.09c-0.318,0-0.642,0.12-0.97,0.361c-0.329,0.24-0.586,0.562-0.771,0.963
		c-0.185,0.402-0.367,1.039-0.548,1.911l-0.451,2.146h-1.85L224.63,82.405z"/>
	<path fill="#FFFFFF" d="M235.104,86.401h-4.641c-0.005,0.073-0.007,0.129-0.007,0.167c0,0.456,0.13,0.823,0.39,1.103
		s0.577,0.419,0.951,0.419c0.614,0,1.094-0.318,1.438-0.954l1.656,0.277c-0.322,0.666-0.753,1.166-1.293,1.499
		c-0.539,0.333-1.144,0.499-1.813,0.499c-0.92,0-1.668-0.291-2.243-0.873c-0.576-0.582-0.864-1.353-0.864-2.311
		c0-0.938,0.261-1.771,0.78-2.501c0.709-0.988,1.721-1.482,3.036-1.482c0.838,0,1.504,0.259,1.998,0.776s0.741,1.243,0.741,2.176
		C235.232,85.643,235.189,86.045,235.104,86.401z M233.543,85.273c0.005-0.082,0.007-0.145,0.007-0.188
		c0-0.507-0.114-0.887-0.342-1.141c-0.228-0.253-0.532-0.38-0.915-0.38s-0.725,0.144-1.028,0.432
		c-0.303,0.288-0.508,0.713-0.615,1.276H233.543z"/>
</g>
</svg>
